<?xml version="1.0" encoding="utf-8"?>
<!-- Generator: Adobe Illustrator 13.0.0, SVG Export Plug-In . SVG Version: 6.00 Build 14948)  -->
<!DOCTYPE svg PUBLIC "-//W3C//DTD SVG 1.1//EN" "http://www.w3.org/Graphics/SVG/1.1/DTD/svg11.dtd">
<svg version="1.1" id="Logo" xmlns="http://www.w3.org/2000/svg" xmlns:xlink="http://www.w3.org/1999/xlink" x="0px" y="0px"
	 width="90px" height="50px" viewBox="0 0 90 50" enable-background="new 0 0 90 50" xml:space="preserve">
<g>
	<path fill="#FFEC00" d="M7.002,25.3633v-0.7266c0,0,4.1489-0.7275,22.998-19.6367l-5.001-5L0,25l24.999,25L30,45
		C11.1509,26.0908,7.002,25.3633,7.002,25.3633z"/>
	<path fill="#15B6C8" d="M83,24.6367v0.7266c0,0-4.1504,0.7275-23,19.6367l5,5l25-25L65,0l-5,5
		C78.8496,23.9092,83,24.6367,83,24.6367z"/>
	
		<rect x="27.3218" y="21.4648" transform="matrix(0.7071 -0.7071 0.7071 0.7071 -4.4976 39.1418)" fill="#E82E43" width="35.3553" height="7.0704"/>
</g>
</svg>
